<svg xmlns="http://www.w3.org/2000/svg" xmlns:xlink="http://www.w3.org/1999/xlink" width="4000" zoomAndPan="magnify" viewBox="0 0 3000 2999.999989" height="4000" preserveAspectRatio="xMidYMid meet" version="1.0"><defs><g/><clipPath id="f2848696be"><path d="M 341.238281 1136.824219 L 2770 1136.824219 L 2770 1802.515625 L 341.238281 1802.515625 Z M 341.238281 1136.824219 " clip-rule="nonzero"/></clipPath><clipPath id="f4bd445d1c"><path d="M 341.25 1136.824219 L 2770.960938 1136.824219 L 2770.960938 1802.507812 L 341.25 1802.507812 Z M 341.25 1136.824219 " clip-rule="nonzero"/></clipPath></defs><g clip-path="url(#f2848696be)"><path fill="#000000" d="M 341.238281 1136.824219 L 2769.960938 1136.824219 L 2769.960938 1802.515625 L 341.238281 1802.515625 Z M 341.238281 1136.824219 " fill-opacity="1" fill-rule="nonzero"/></g><g clip-path="url(#f4bd445d1c)"><path stroke-linecap="butt" transform="matrix(0.697996, 0, 0, 0.697996, 341.249872, 1136.825448)" fill="none" stroke-linejoin="miter" d="M 0.000182766 -0.00176178 L 3481.18974 -0.00176178 L 3481.18974 953.705488 L 0.000182766 953.705488 Z M 0.000182766 -0.00176178 " stroke="#ffffff" stroke-width="68.768318" stroke-opacity="1" stroke-miterlimit="4"/></g><path stroke-linecap="butt" transform="matrix(0.886694, 0, 0, 0.886694, 198.489753, 1115.420329)" fill="none" stroke-linejoin="miter" d="M 342.342865 173.478035 C 382.863839 173.478035 419.173241 182.425426 451.275474 200.315802 C 483.483437 218.210583 508.744066 242.889698 527.057362 274.361958 C 545.370657 305.829812 554.525102 339.460723 554.525102 375.24588 C 554.525102 424.397056 541.264814 471.076795 514.744237 515.280694 C 488.219254 559.378862 452.328367 594.692641 407.071575 621.213218 C 361.814783 647.7382 314.606394 660.998488 265.455219 660.998488 L 85.00516 660.998488 L 162.046996 173.478035 Z M 228.511438 553.643017 L 253.142094 553.643017 C 304.504786 553.643017 345.34295 538.488401 375.652181 508.174765 C 406.071547 477.759804 421.279027 438.393048 421.279027 390.083306 C 421.279027 357.245369 411.018824 330.830522 390.494012 310.829954 C 370.07493 290.833791 339.607104 280.833507 299.081724 280.833507 L 271.931174 280.833507 Z M 228.511438 553.643017 " stroke="#000000" stroke-width="65.474632" stroke-opacity="1" stroke-miterlimit="4"/><g fill="#ffffff" fill-opacity="1"><g transform="translate(237.185614, 1701.524778)"><g><path d="M 264.90625 -432.34375 C 300.84375 -432.34375 333.046875 -424.410156 361.515625 -408.546875 C 389.992188 -392.679688 412.359375 -370.796875 428.609375 -342.890625 C 444.859375 -314.984375 452.984375 -285.164062 452.984375 -253.4375 C 452.984375 -209.863281 441.226562 -168.484375 417.71875 -129.296875 C 394.207031 -90.117188 362.382812 -58.773438 322.25 -35.265625 C 282.113281 -11.753906 240.253906 0 196.671875 0 L 36.703125 0 L 104.9375 -432.34375 Z M 163.984375 -95.1875 L 185.78125 -95.1875 C 231.269531 -95.1875 267.488281 -108.660156 294.4375 -135.609375 C 321.382812 -162.554688 334.859375 -197.4375 334.859375 -240.25 C 334.859375 -269.300781 325.78125 -292.710938 307.625 -310.484375 C 289.46875 -328.265625 262.421875 -337.15625 226.484375 -337.15625 L 202.40625 -337.15625 Z M 163.984375 -95.1875 "/></g></g></g><path stroke-linecap="butt" transform="matrix(8.544069, 0, 0, 8.544069, 566.086084, 1200.51859)" fill="none" stroke-linejoin="miter" d="M 36.586036 20.632113 C 36.586036 23.010408 36.06987 25.132677 35.037081 26.99892 C 34.003835 28.865164 32.636841 30.245416 30.935643 31.139219 C 32.532602 31.564862 33.782556 32.541416 34.685503 34.068883 C 35.59668 35.59635 36.052497 37.376185 36.052497 39.407016 C 36.052497 42.106714 35.249674 44.650054 33.64357 47.037035 C 32.046611 49.41533 29.859421 51.272887 27.081544 52.609249 C 24.31281 53.937381 21.313654 54.601676 18.084989 54.601676 C 15.168126 54.601676 12.651303 54.076366 10.533149 53.026204 C 8.415452 51.975585 6.753114 50.348451 5.546594 48.143431 C 4.340073 45.938868 3.736585 43.790539 3.736585 41.698445 C 3.736585 41.412245 3.753958 41.116901 3.788704 40.813328 C 3.82345 40.509298 3.858197 40.214411 3.892943 39.927754 L 14.556408 39.927754 C 14.521661 40.214411 14.495602 40.448492 14.478228 40.63091 C 14.460855 40.804641 14.452169 40.926254 14.452169 40.995746 C 14.452169 42.418974 14.9121 43.551887 15.832421 44.393571 C 16.760971 45.227026 17.90257 45.643524 19.256763 45.643524 C 21.070887 45.643524 22.60704 45.040493 23.86568 43.833972 C 25.12432 42.618765 25.753411 41.160334 25.753411 39.459136 C 25.753411 38.104943 25.280678 37.002662 24.334298 36.152291 C 23.397062 35.292777 22.290208 34.86302 21.014195 34.86302 C 20.406592 34.86302 19.781615 34.97183 19.139265 35.188538 L 20.259377 28.196754 L 21.170554 28.196754 C 22.845692 28.196754 24.178397 27.702076 25.167753 26.71272 C 26.165795 25.71422 26.665045 24.486212 26.665045 23.027781 C 26.665045 21.994992 26.334955 21.187597 25.675689 20.606053 C 25.015966 20.015823 24.173825 19.720936 23.149723 19.720936 C 21.934516 19.720936 20.853722 20.120062 19.907799 20.91877 C 18.970105 21.717021 18.379875 22.863193 18.137108 24.355913 L 8.424138 24.355913 C 9.561166 20.311167 11.613942 17.108104 14.582467 14.747183 C 17.550992 12.377575 21.170554 11.192542 25.441152 11.192542 C 28.817489 11.192542 31.517187 12.038798 33.539789 13.731767 C 35.57062 15.415592 36.586036 17.715708 36.586036 20.632113 Z M 36.586036 20.632113 " stroke="#000000" stroke-width="5.399997" stroke-opacity="1" stroke-miterlimit="4"/><g fill="#ffffff" fill-opacity="1"><g transform="translate(566.086084, 1653.354232)"><g><path d="M 312.578125 -276.578125 C 312.578125 -256.222656 308.171875 -238.070312 299.359375 -222.125 C 290.554688 -206.175781 278.863281 -194.40625 264.28125 -186.8125 C 277.945312 -183.164062 288.65625 -174.8125 296.40625 -161.75 C 304.15625 -148.695312 308.03125 -133.507812 308.03125 -116.1875 C 308.03125 -93.101562 301.191406 -71.382812 287.515625 -51.03125 C 273.847656 -30.675781 255.164062 -14.800781 231.46875 -3.40625 C 207.78125 7.976562 182.113281 13.671875 154.46875 13.671875 C 129.5625 13.671875 108.066406 9.1875 89.984375 0.21875 C 71.910156 -8.738281 57.707031 -22.632812 47.375 -41.46875 C 37.050781 -60.300781 31.890625 -78.675781 31.890625 -96.59375 C 31.890625 -99.03125 32.039062 -101.535156 32.34375 -104.109375 C 32.65625 -106.691406 32.960938 -109.203125 33.265625 -111.640625 L 124.390625 -111.640625 C 124.085938 -109.203125 123.859375 -107.222656 123.703125 -105.703125 C 123.554688 -104.191406 123.484375 -103.128906 123.484375 -102.515625 C 123.484375 -90.367188 127.429688 -80.722656 135.328125 -73.578125 C 143.222656 -66.441406 152.941406 -62.875 164.484375 -62.875 C 179.984375 -62.875 193.125 -68.035156 203.90625 -78.359375 C 214.6875 -88.691406 220.078125 -101.148438 220.078125 -115.734375 C 220.078125 -127.273438 216.050781 -136.691406 208 -143.984375 C 199.957031 -151.273438 190.46875 -154.921875 179.53125 -154.921875 C 174.363281 -154.921875 169.046875 -154.007812 163.578125 -152.1875 L 173.15625 -211.875 L 180.890625 -211.875 C 195.171875 -211.875 206.5625 -216.125 215.0625 -224.625 C 223.570312 -233.132812 227.828125 -243.617188 227.828125 -256.078125 C 227.828125 -264.890625 225.015625 -271.800781 219.390625 -276.8125 C 213.773438 -281.820312 206.5625 -284.328125 197.75 -284.328125 C 187.425781 -284.328125 178.238281 -280.910156 170.1875 -274.078125 C 162.132812 -267.242188 157.046875 -257.445312 154.921875 -244.6875 L 72 -244.6875 C 81.71875 -279.3125 99.257812 -306.722656 124.625 -326.921875 C 149.988281 -347.128906 180.894531 -357.234375 217.34375 -357.234375 C 246.207031 -357.234375 269.296875 -350.019531 286.609375 -335.59375 C 303.921875 -321.164062 312.578125 -301.492188 312.578125 -276.578125 Z M 312.578125 -276.578125 "/></g></g></g><path stroke-linecap="butt" transform="matrix(0.886694, 0, 0, 0.886694, 781.472778, 1200.51859)" fill="none" stroke-linejoin="miter" d="M 235.878808 138.560063 L 282.175277 345.579158 L 397.72922 138.560063 L 497.974357 138.560063 L 495.467678 525.998379 L 394.715918 525.998379 L 401.870306 302.921559 L 400.865872 302.921559 L 272.386453 525.998379 L 232.239938 525.998379 L 178.789081 302.921559 L 177.784647 302.921559 L 110.033825 525.998379 L 9.784281 525.998379 L 136.75705 138.560063 Z M 720.447636 138.560063 L 805.260617 525.998379 L 697.861091 525.998379 L 683.561125 458.626421 L 544.79507 458.626421 L 507.278586 525.998379 L 400.381277 525.998379 L 610.537025 138.560063 Z M 584.818233 381.588991 L 668.631186 381.588991 L 647.049075 258.255092 L 646.044642 258.255092 Z M 584.818233 381.588991 " stroke="#000000" stroke-width="52.033691" stroke-opacity="1" stroke-miterlimit="4"/><g fill="#ffffff" fill-opacity="1"><g transform="translate(781.472778, 1666.919406)"><g><path d="M 209.15625 -343.59375 L 250.171875 -159.953125 L 352.703125 -343.59375 L 441.5625 -343.59375 L 439.28125 0 L 349.96875 0 L 356.34375 -197.765625 L 355.4375 -197.765625 L 241.515625 0 L 205.96875 0 L 158.578125 -197.765625 L 157.671875 -197.765625 L 97.515625 0 L 8.65625 0 L 121.21875 -343.59375 Z M 209.15625 -343.59375 "/></g></g></g><g fill="#ffffff" fill-opacity="1"><g transform="translate(1138.269474, 1666.919406)"><g><path d="M 282.078125 -343.59375 L 357.265625 0 L 262.015625 0 L 249.265625 -59.6875 L 126.21875 -59.6875 L 92.953125 0 L -1.828125 0 L 184.546875 -343.59375 Z M 161.765625 -128.046875 L 236.046875 -128.046875 L 216.90625 -237.40625 L 216 -237.40625 Z M 161.765625 -128.046875 "/></g></g></g><path stroke-linecap="butt" transform="matrix(0.886694, 0, 0, 0.886694, 1369.394823, 1200.51859)" fill="none" stroke-linejoin="miter" d="M 227.094226 128.273427 C 268.579985 128.273427 307.475363 138.894874 343.775953 160.142174 L 291.333935 238.179632 C 273.18364 221.033771 252.310801 212.46084 228.724228 212.46084 C 216.345022 212.46084 205.093601 215.971953 194.974371 222.998584 C 184.938843 230.025216 179.916674 238.681849 179.916674 248.968485 C 179.916674 256.497333 183.515895 263.10545 190.709932 268.792836 C 197.903969 274.480223 211.07615 280.044257 230.230879 285.480535 C 256.244833 293.344195 275.064751 300.956746 286.690632 308.313783 C 298.400215 315.675225 307.475363 324.750373 313.916074 335.543631 C 320.440489 346.332483 323.704899 359.799826 323.704899 375.941254 C 323.704899 399.197421 317.72235 423.87213 305.761658 449.965383 C 293.800966 475.979337 274.183669 496.72442 246.918577 512.20063 C 219.64908 527.588732 187.36182 535.619797 150.056795 536.28942 C 102.130324 536.28942 58.970508 521.566535 20.577347 492.12517 L 76.534884 410.823302 C 103.302164 437.586176 130.902066 450.969816 159.343403 450.969816 C 175.066316 450.969816 188.326605 446.872784 199.115457 438.674313 C 209.90431 430.396545 215.300939 419.938098 215.300939 407.307783 C 215.300939 390.831545 198.864349 378.157176 165.991169 369.293488 C 126.258763 358.33723 100.539971 346.623241 88.830387 334.160332 C 77.204506 321.61372 71.389363 304.886373 71.389363 283.973884 C 71.389363 240.144446 86.363357 203.257936 116.306938 173.314354 C 146.334223 143.28707 183.264787 128.273427 227.094226 128.273427 Z M 513.3887 138.560063 L 452.285643 525.998379 L 351.533883 525.998379 L 399.337003 223.875261 L 343.758332 223.875261 L 357.18162 138.560063 Z M 513.3887 138.560063 " stroke="#000000" stroke-width="52.033691" stroke-opacity="1" stroke-miterlimit="4"/><g fill="#ffffff" fill-opacity="1"><g transform="translate(1369.394823, 1666.919406)"><g><path d="M 201.40625 -352.703125 C 238.164062 -352.703125 272.648438 -343.285156 304.859375 -324.453125 L 258.375 -255.1875 C 242.269531 -270.375 223.738281 -277.96875 202.78125 -277.96875 C 191.84375 -277.96875 181.890625 -274.851562 172.921875 -268.625 C 163.960938 -262.394531 159.484375 -254.722656 159.484375 -245.609375 C 159.484375 -238.929688 162.671875 -233.082031 169.046875 -228.0625 C 175.429688 -223.050781 187.128906 -218.117188 204.140625 -213.265625 C 227.234375 -206.273438 243.941406 -199.515625 254.265625 -192.984375 C 264.597656 -186.453125 272.648438 -178.398438 278.421875 -168.828125 C 284.191406 -159.265625 287.078125 -147.34375 287.078125 -133.0625 C 287.078125 -112.40625 281.757812 -90.53125 271.125 -67.4375 C 260.5 -44.351562 243.109375 -25.972656 218.953125 -12.296875 C 194.804688 1.367188 166.175781 8.503906 133.0625 9.109375 C 90.53125 9.109375 52.253906 -3.953125 18.234375 -30.078125 L 67.890625 -102.078125 C 91.585938 -78.378906 116.046875 -66.53125 141.265625 -66.53125 C 155.234375 -66.53125 167.003906 -70.175781 176.578125 -77.46875 C 186.148438 -84.757812 190.9375 -94.023438 190.9375 -105.265625 C 190.9375 -119.847656 176.351562 -131.085938 147.1875 -138.984375 C 111.945312 -148.703125 89.160156 -159.101562 78.828125 -170.1875 C 68.503906 -181.28125 63.34375 -196.09375 63.34375 -214.625 C 63.34375 -253.507812 76.628906 -286.242188 103.203125 -312.828125 C 129.785156 -339.410156 162.519531 -352.703125 201.40625 -352.703125 Z M 201.40625 -352.703125 "/></g></g></g><g fill="#ffffff" fill-opacity="1"><g transform="translate(1558.501317, 1666.919406)"><g><path d="M 266.125 -343.59375 L 211.890625 0 L 122.578125 0 L 164.953125 -267.9375 L 115.75 -267.9375 L 127.59375 -343.59375 Z M 266.125 -343.59375 "/></g></g></g><path stroke-linecap="butt" transform="matrix(0.886694, 0, 0, 0.886694, 1731.296063, 1197.882814)" fill="none" stroke-linejoin="miter" d="M 318.058407 138.559 L 402.871388 526.001721 L 295.471862 526.001721 L 281.171896 458.625358 L 142.405841 458.625358 L 104.889357 526.001721 L -2.007952 526.001721 L 208.147796 138.559 Z M 182.429004 381.587928 L 266.237552 381.587928 L 244.659846 258.254029 L 243.655412 258.254029 Z M 541.099983 138.559 C 573.303541 138.559 602.163391 145.669334 627.675129 159.890002 C 653.270569 174.11067 673.341624 193.723562 687.897104 218.733083 C 702.452583 243.742604 709.730323 270.465829 709.730323 298.907166 C 709.730323 337.969949 699.188173 375.063514 678.112685 410.19667 C 657.032791 445.241718 628.507752 473.304189 592.541973 494.384083 C 556.576193 515.459571 519.05971 526.001721 480.001332 526.001721 L 336.591972 526.001721 L 397.818381 138.559 Z M 450.639264 440.682117 L 470.212507 440.682117 C 511.03305 440.682117 543.487716 428.637722 567.576506 404.548932 C 591.748999 380.37644 603.833042 349.093613 603.833042 310.700452 C 603.833042 284.602795 595.678626 263.606604 579.369792 247.716285 C 563.140257 231.82156 538.928115 223.878603 506.724557 223.878603 L 485.142447 223.878603 Z M 450.639264 440.682117 " stroke="#000000" stroke-width="52.033691" stroke-opacity="1" stroke-miterlimit="4"/><g fill="#ffffff" fill-opacity="1"><g transform="translate(1731.296063, 1664.28363)"><g><path d="M 282.078125 -343.59375 L 357.265625 0 L 262.015625 0 L 249.265625 -59.6875 L 126.21875 -59.6875 L 92.953125 0 L -1.828125 0 L 184.546875 -343.59375 Z M 161.765625 -128.046875 L 236.046875 -128.046875 L 216.90625 -237.40625 L 216 -237.40625 Z M 161.765625 -128.046875 "/></g></g></g><g fill="#ffffff" fill-opacity="1"><g transform="translate(2000.602226, 1664.28363)"><g><path d="M 210.53125 -343.59375 C 239.082031 -343.59375 264.675781 -337.285156 287.3125 -324.671875 C 309.945312 -312.066406 327.71875 -294.675781 340.625 -272.5 C 353.539062 -250.320312 360 -226.625 360 -201.40625 C 360 -166.78125 350.65625 -133.894531 331.96875 -102.75 C 313.28125 -71.613281 287.988281 -46.703125 256.09375 -28.015625 C 224.195312 -9.335938 190.929688 0 156.296875 0 L 29.15625 0 L 83.390625 -343.59375 Z M 130.328125 -75.640625 L 147.640625 -75.640625 C 183.796875 -75.640625 212.582031 -86.347656 234 -107.765625 C 255.414062 -129.179688 266.125 -156.90625 266.125 -190.9375 C 266.125 -214.019531 258.90625 -232.625 244.46875 -246.75 C 230.039062 -260.875 208.550781 -267.9375 180 -267.9375 L 160.859375 -267.9375 Z M 130.328125 -75.640625 "/></g></g></g><path stroke-linecap="butt" transform="matrix(0.886694, 0, 0, 0.886694, 2255.703407, 1118.056105)" fill="none" stroke-linejoin="miter" d="M 591.086953 147.588496 L 633.08374 199.211107 L 565.826323 256.838294 C 588.245462 291.782018 599.457235 328.620068 599.457235 367.352446 C 599.457235 419.975086 585.192512 470.760669 556.671878 519.700385 C 528.252569 568.644506 490.101706 607.112559 442.210478 635.108949 C 394.42498 663.105339 341.643745 677.101331 283.862369 677.101331 C 222.710852 677.101331 171.189565 660.528173 129.298508 627.373046 L 60.15117 686.890155 L 17.524408 635.108949 L 84.77742 577.640356 C 63.622634 541.855199 53.045241 501.334225 53.045241 456.077433 C 53.045241 401.66179 67.358423 351.616316 95.989192 305.936605 C 124.721285 260.256893 163.876582 224.053222 213.446272 197.31678 C 263.020367 170.584743 313.858815 157.218725 365.957211 157.218725 C 425.002941 157.218725 476.312768 174.056208 519.886693 207.739984 Z M 413.161195 298.830676 C 392.953573 286.306091 370.534434 280.046002 345.908184 280.046002 C 320.541825 280.046002 295.33406 286.993336 270.284891 300.883598 C 245.341451 314.672536 225.182288 333.197291 209.816213 356.457863 C 194.555868 379.718436 186.925695 405.556174 186.925695 433.975483 C 186.925695 452.077319 190.13724 468.496288 196.555925 483.232389 Z M 237.918333 535.48938 C 256.020168 548.013964 277.809333 554.274054 303.281422 554.274054 C 331.277812 554.274054 357.745524 546.538151 382.693369 531.066346 C 407.742539 515.488812 427.791566 494.80981 442.840452 469.024937 C 457.999473 443.129928 465.57678 417.027866 465.57678 390.714343 C 465.57678 376.506891 462.576695 362.929413 456.576525 349.986314 Z M 237.918333 535.48938 " stroke="#000000" stroke-width="65.474632" stroke-opacity="1" stroke-miterlimit="4"/><g fill="#ffffff" fill-opacity="1"><g transform="translate(2255.703407, 1704.160554)"><g><path d="M 524.078125 -455.265625 L 561.34375 -409.40625 L 501.71875 -358.375 C 521.59375 -327.40625 531.53125 -294.71875 531.53125 -260.3125 C 531.53125 -213.675781 518.914062 -168.664062 493.6875 -125.28125 C 468.457031 -81.894531 434.625 -47.78125 392.1875 -22.9375 C 349.757812 1.90625 302.9375 14.328125 251.71875 14.328125 C 197.4375 14.328125 151.753906 -0.382812 114.671875 -29.8125 L 53.328125 22.9375 L 15.484375 -22.9375 L 75.109375 -73.96875 C 56.378906 -105.695312 47.015625 -141.628906 47.015625 -181.765625 C 47.015625 -229.929688 59.722656 -274.273438 85.140625 -314.796875 C 110.566406 -355.316406 145.257812 -387.425781 189.21875 -411.125 C 233.175781 -434.820312 278.285156 -446.671875 324.546875 -446.671875 C 376.910156 -446.671875 422.394531 -431.765625 461 -401.953125 Z M 366.390625 -321.09375 C 348.429688 -332.1875 328.554688 -337.734375 306.765625 -337.734375 C 284.210938 -337.734375 261.847656 -331.613281 239.671875 -319.375 C 217.503906 -307.144531 199.632812 -290.707031 186.0625 -270.0625 C 172.488281 -249.425781 165.703125 -226.492188 165.703125 -201.265625 C 165.703125 -185.203125 168.570312 -170.675781 174.3125 -157.6875 Z M 211 -111.234375 C 227.0625 -100.148438 246.367188 -94.609375 268.921875 -94.609375 C 293.765625 -94.609375 317.269531 -101.488281 339.4375 -115.25 C 361.613281 -129.007812 379.390625 -147.359375 392.765625 -170.296875 C 406.148438 -193.234375 412.84375 -216.359375 412.84375 -239.671875 C 412.84375 -252.285156 410.164062 -264.328125 404.8125 -275.796875 Z M 211 -111.234375 "/></g></g></g><path stroke-linecap="butt" transform="matrix(0.125761, 0, 0, 0.125761, 2569.989033, 1168.932239)" fill="none" stroke-linejoin="miter" d="M 158.343011 138.573902 L 186.080486 388.739213 L 187.074438 388.739213 L 307.777492 138.573902 L 387.945938 138.573902 L 424.442615 388.739213 L 425.467628 388.739213 L 538.125883 138.573902 L 642.894642 138.573902 L 457.957436 525.997781 L 355.083398 525.997781 L 322.686772 301.426736 L 321.69282 301.426736 L 210.152762 525.997781 L 107.899943 525.997781 L 53.450007 138.573902 Z M 158.343011 138.573902 " stroke="#000000" stroke-width="52.033691" stroke-opacity="1" stroke-miterlimit="4"/><g fill="#ffffff" fill-opacity="1"><g transform="translate(2569.989033, 1235.08231)"><g><path d="M 19.90625 -48.734375 L 23.390625 -17.25 L 23.53125 -17.25 L 38.703125 -48.734375 L 48.796875 -48.734375 L 53.375 -17.25 L 53.515625 -17.25 L 67.65625 -48.734375 L 80.84375 -48.734375 L 57.578125 0 L 44.65625 0 L 40.578125 -28.234375 L 40.453125 -28.234375 L 26.4375 0 L 13.578125 0 L 6.71875 -48.734375 Z M 19.90625 -48.734375 "/></g></g></g><path stroke-linecap="butt" transform="matrix(0.125761, 0, 0, 0.125761, 2630.767614, 1168.932239)" fill="none" stroke-linejoin="miter" d="M 314.53895 138.573902 L 301.120597 223.867414 L 181.411495 223.867414 L 171.130304 288.629603 L 284.689327 288.629603 L 271.395218 373.923115 L 157.711951 373.923115 L 146.933783 440.673208 L 266.736068 440.673208 L 253.317715 525.997781 L 32.877783 525.997781 L 94.099018 138.573902 Z M 314.53895 138.573902 " stroke="#000000" stroke-width="52.033691" stroke-opacity="1" stroke-miterlimit="4"/><g fill="#ffffff" fill-opacity="1"><g transform="translate(2630.767614, 1235.08231)"><g><path d="M 39.546875 -48.734375 L 37.875 -38 L 22.8125 -38 L 21.515625 -29.859375 L 35.796875 -29.859375 L 34.125 -19.125 L 19.84375 -19.125 L 18.484375 -10.734375 L 33.546875 -10.734375 L 31.859375 0 L 4.140625 0 L 11.828125 -48.734375 Z M 39.546875 -48.734375 "/></g></g></g><path stroke-linecap="butt" transform="matrix(0.125761, 0, 0, 0.125761, 2650.666301, 1168.932239)" fill="none" stroke-linejoin="miter" d="M 355.537488 138.573902 L 440.334023 525.997781 L 332.956139 525.997781 L 318.637017 458.626467 L 179.887521 458.626467 L 142.365831 525.997781 L 35.453862 525.997781 L 245.612602 138.573902 Z M 219.894092 381.595182 L 303.696675 381.595182 L 282.14034 258.251943 L 281.115327 258.251943 Z M 219.894092 381.595182 " stroke="#000000" stroke-width="52.033691" stroke-opacity="1" stroke-miterlimit="4"/><g fill="#ffffff" fill-opacity="1"><g transform="translate(2655.378394, 1235.08231)"><g><path d="M 40 -48.734375 L 50.671875 0 L 37.15625 0 L 35.34375 -8.46875 L 17.90625 -8.46875 L 13.1875 0 L -0.265625 0 L 26.171875 -48.734375 Z M 22.9375 -18.15625 L 33.46875 -18.15625 L 30.765625 -33.671875 L 30.625 -33.671875 Z M 22.9375 -18.15625 "/></g></g></g><path stroke-linecap="butt" transform="matrix(0.125761, 0, 0, 0.125761, 2685.138388, 1168.932239)" fill="none" stroke-linejoin="miter" d="M 292.053331 138.573902 C 326.996958 138.573902 355.013982 146.805068 376.104402 163.267399 C 397.194822 179.667608 407.724502 203.27397 407.724502 234.055423 C 407.724502 267.011146 397.940287 296.053183 378.371855 321.243655 C 358.865546 346.403067 333.861439 361.716141 303.328474 367.151816 L 399.959252 525.997781 L 274.597047 525.997781 L 203.218865 376.936032 L 202.069608 376.936032 L 178.494307 525.997781 L 77.732417 525.997781 L 138.984713 138.573902 Z M 212.38186 312.204904 L 226.297189 312.204904 C 249.965673 312.204904 268.291664 307.235143 281.244102 297.264562 C 294.289723 287.325041 300.812533 272.757431 300.812533 253.623854 C 300.812533 228.278076 279.908479 215.605187 238.10037 215.605187 L 227.819178 215.605187 Z M 212.38186 312.204904 " stroke="#000000" stroke-width="52.033691" stroke-opacity="1" stroke-miterlimit="4"/><g fill="#ffffff" fill-opacity="1"><g transform="translate(2690.781894, 1235.08231)"><g><path d="M 31.078125 -48.734375 C 35.472656 -48.734375 38.992188 -47.695312 41.640625 -45.625 C 44.296875 -43.550781 45.625 -40.578125 45.625 -36.703125 C 45.625 -32.566406 44.394531 -28.914062 41.9375 -25.75 C 39.488281 -22.582031 36.34375 -20.65625 32.5 -19.96875 L 44.65625 0 L 28.890625 0 L 19.90625 -18.734375 L 19.78125 -18.734375 L 16.796875 0 L 4.140625 0 L 11.828125 -48.734375 Z M 21.0625 -26.890625 L 22.8125 -26.890625 C 25.78125 -26.890625 28.082031 -27.507812 29.71875 -28.75 C 31.363281 -30 32.1875 -31.832031 32.1875 -34.25 C 32.1875 -37.4375 29.554688 -39.03125 24.296875 -39.03125 L 23 -39.03125 Z M 21.0625 -26.890625 "/></g></g></g></svg>