<svg xmlns="http://www.w3.org/2000/svg" xmlns:xlink="http://www.w3.org/1999/xlink" width="4000" zoomAndPan="magnify" viewBox="0 0 3000 2999.999989" height="4000" preserveAspectRatio="xMidYMid meet" version="1.0"><defs><g/><clipPath id="8bbdd44c21"><path d="M 824.4375 821.039062 L 2213.226562 821.039062 L 2213.226562 2403.417969 L 824.4375 2403.417969 Z M 824.4375 821.039062 " clip-rule="nonzero"/></clipPath><clipPath id="dc0933d89e"><path d="M 824.441406 821.039062 L 2213.167969 821.039062 L 2213.167969 2403.035156 L 824.441406 2403.035156 Z M 824.441406 821.039062 " clip-rule="nonzero"/></clipPath></defs><g clip-path="url(#8bbdd44c21)"><path fill="#000000" d="M 824.4375 821.039062 L 2213.226562 821.039062 L 2213.226562 2405.128906 L 824.4375 2405.128906 Z M 824.4375 821.039062 " fill-opacity="1" fill-rule="nonzero"/></g><g clip-path="url(#dc0933d89e)"><path stroke-linecap="butt" transform="matrix(0.9203, 0, 0, 0.9203, 824.43964, 821.039127)" fill="none" stroke-linejoin="miter" d="M 0.00191908 -0.0000698463 L 1509.055031 -0.0000698463 L 1509.055031 1719.408241 L 0.00191908 1719.408241 Z M 0.00191908 -0.0000698463 " stroke="#ffffff" stroke-width="52.156918" stroke-opacity="1" stroke-miterlimit="4"/></g><path stroke-linecap="butt" transform="matrix(2.543194, 0, 0, 2.543194, 699.609046, 562.868522)" fill="none" stroke-linejoin="miter" d="M 591.087593 147.587026 L 633.08234 199.212256 L 565.827157 256.836956 C 588.246063 291.780099 599.455516 328.61862 599.455516 367.350983 C 599.455516 419.976125 585.194106 470.759648 556.671285 519.701553 C 528.25291 568.641921 490.099605 607.111634 442.209835 635.10762 C 394.427582 663.105142 341.644235 677.103903 283.861332 677.103903 C 222.710063 677.103903 171.190813 660.526261 129.300512 627.372514 L 60.151487 686.891055 L 17.523924 635.10762 L 84.779107 577.641125 C 63.624298 541.856274 53.046125 501.334515 53.046125 456.077384 C 53.046125 401.662846 67.359758 351.615049 95.988561 305.937064 C 124.721808 260.257544 163.875025 224.051839 213.44821 197.318415 C 263.021395 170.58499 313.857141 157.21751 365.956984 157.21751 C 425.002448 157.21751 476.311271 174.057801 519.884987 207.738383 Z M 413.161715 298.833238 C 392.953058 286.307465 370.534151 280.045347 345.906531 280.045347 C 320.540113 280.045347 295.333435 286.992505 270.283425 300.885284 C 245.339396 314.672082 225.184498 333.197324 209.817195 356.457938 C 194.555873 379.717016 186.925212 405.556511 186.925212 433.974886 C 186.925212 452.077738 190.135373 468.497176 196.555696 483.231663 Z M 237.919162 535.488174 C 256.022014 548.013947 277.80964 554.276065 303.278968 554.276065 C 331.27649 554.276065 357.747265 546.539423 382.691293 531.067674 C 407.741303 515.49148 427.791756 494.809747 442.842651 469.022475 C 457.997992 443.130758 465.57643 417.028613 465.57643 390.716042 C 465.57643 376.506855 462.576695 362.930483 456.577226 349.983857 Z M 237.919162 535.488174 " stroke="#000000" stroke-width="65.474632" stroke-opacity="1" stroke-miterlimit="4"/><g fill="#ffffff" fill-opacity="1"><g transform="translate(699.609046, 2243.919654)"><g><path d="M 1503.140625 -1305.78125 L 1610.046875 -1174.21875 L 1439 -1027.84375 C 1496.019531 -939.039062 1524.53125 -845.300781 1524.53125 -746.625 C 1524.53125 -612.863281 1488.347656 -483.765625 1415.984375 -359.328125 C 1343.617188 -234.898438 1246.585938 -137.050781 1124.890625 -65.78125 C 1003.191406 5.476562 868.882812 41.109375 721.96875 41.109375 C 566.28125 41.109375 435.265625 -1.097656 328.921875 -85.515625 L 152.953125 65.78125 L 44.40625 -65.78125 L 215.4375 -212.15625 C 161.71875 -303.15625 134.859375 -406.207031 134.859375 -521.3125 C 134.859375 -659.457031 171.3125 -786.640625 244.21875 -902.859375 C 317.125 -1019.078125 416.617188 -1111.171875 542.703125 -1179.140625 C 668.796875 -1247.117188 798.171875 -1281.109375 930.828125 -1281.109375 C 1081.035156 -1281.109375 1211.503906 -1238.347656 1322.234375 -1152.828125 Z M 1050.890625 -920.953125 C 999.359375 -952.742188 942.34375 -968.640625 879.84375 -968.640625 C 815.15625 -968.640625 751.015625 -951.097656 687.421875 -916.015625 C 623.835938 -880.929688 572.582031 -833.785156 533.65625 -774.578125 C 494.738281 -715.378906 475.28125 -649.597656 475.28125 -577.234375 C 475.28125 -531.191406 483.503906 -489.535156 499.953125 -452.265625 Z M 605.203125 -319.046875 C 651.253906 -287.253906 706.625 -271.359375 771.3125 -271.359375 C 842.570312 -271.359375 909.992188 -291.09375 973.578125 -330.5625 C 1037.171875 -370.03125 1088.15625 -422.648438 1126.53125 -488.421875 C 1164.90625 -554.203125 1184.09375 -620.535156 1184.09375 -687.421875 C 1184.09375 -723.597656 1176.421875 -758.132812 1161.078125 -791.03125 Z M 605.203125 -319.046875 "/></g></g></g></svg>